<svg xmlns="http://www.w3.org/2000/svg" width="256" height="256" viewBox="0 0 256 256" role="img" aria-labelledby="title"><title id="title">火龍果</title><defs><linearGradient id="bg" x1="0" y1="0" x2="0.8" y2="1"><stop stop-color="#FFFFFF"/><stop offset="1" stop-color="#F8E2F0"/></linearGradient><linearGradient id="rim" x1="0" y1="0" x2="0.7" y2="1"><stop stop-color="#F8E2F0"/><stop offset="1" stop-color="#D568A0" stop-opacity="0.38"/></linearGradient><linearGradient id="leaf" x1="0" y1="0" x2="0.8" y2="1"><stop stop-color="#8DBB51"/><stop offset="1" stop-color="#317450"/></linearGradient><linearGradient id="f" x1="0.15" y1="0" x2="0.85" y2="1"><stop stop-color="#EBA1CC"/><stop offset="1" stop-color="#C35492"/></linearGradient></defs><circle cx="128" cy="128" r="119" fill="url(#rim)"/><circle cx="128" cy="127" r="113" fill="url(#bg)"/><path d="M39 100A94 94 0 0 1 160 38" fill="none" stroke="#FFF" stroke-width="3" stroke-linecap="round" opacity="0.85"/><ellipse cx="128" cy="213" rx="49" ry="6" fill="#6F6250" opacity="0.12"/><path d="M127 78C143 61 156 55 161 56C158 77 150 93 144 98L116 97C98 86 91 70 92 58C109 65 115 72 127 78Z" fill="#82A75B" /><path d="M128 81C96 82 75 110 76 148C76 184 98 210 126 212C159 213 183 184 182 148C181 111 159 82 128 81Z" fill="url(#f)" /><path d="M109 113C86 112 70 100 65 89C68 119 82 135 101 136Z" fill="#9BBD6D" /><path d="M143 112C163 105 177 91 180 81C186 109 170 127 151 137Z" fill="#9BBD6D" /><path d="M103 159C85 155 71 143 65 129C65 160 80 177 105 179Z" fill="#9BBD6D" /><path d="M150 158C171 151 181 138 190 124C192 155 180 173 152 181Z" fill="#9BBD6D" /><path d="M123 189C110 173 104 154 108 145C122 155 135 167 136 183Z" fill="#9BBD6D" /><path d="M127 110C113 117 107 132 111 145C125 138 132 125 127 110Z" fill="#F2A9CF" /><path d="M95 127Q88 142 94 154" fill="none" stroke="#FFFFFF" stroke-opacity="0.38" stroke-width="6" stroke-linecap="round"/></svg>