<svg xmlns="http://www.w3.org/2000/svg" width="256" height="256" viewBox="0 0 256 256" role="img" aria-labelledby="title"><title id="title">芒果</title><defs><linearGradient id="bg" x1="0" y1="0" x2="0.8" y2="1"><stop stop-color="#FFFFFF"/><stop offset="1" stop-color="#FFF0D9"/></linearGradient><linearGradient id="rim" x1="0" y1="0" x2="0.7" y2="1"><stop stop-color="#FFF0D9"/><stop offset="1" stop-color="#F4B54B" stop-opacity="0.38"/></linearGradient><linearGradient id="leaf" x1="0" y1="0" x2="0.8" y2="1"><stop stop-color="#8DBB51"/><stop offset="1" stop-color="#317450"/></linearGradient><linearGradient id="f" x1="0.2" y1="0" x2="0.8" y2="1"><stop stop-color="#FBB345"/><stop offset="1" stop-color="#E5542B"/></linearGradient></defs><circle cx="128" cy="128" r="119" fill="url(#rim)"/><circle cx="128" cy="127" r="113" fill="url(#bg)"/><path d="M39 100A94 94 0 0 1 160 38" fill="none" stroke="#FFF" stroke-width="3" stroke-linecap="round" opacity="0.85"/><ellipse cx="128" cy="206" rx="50" ry="6" fill="#6F6250" opacity="0.13"/><path d="M118 84C122 78 130 76 134 80" fill="none" stroke="#7A5F33" stroke-width="4.5" stroke-linecap="round"/><path d="M132 82C146 62 172 62 188 72C172 90 150 92 132 82Z" fill="url(#leaf)"/><path d="M104 96C84 112 74 146 80 174C86 198 108 206 134 202C166 198 188 176 184 146C181 124 162 108 140 98C128 92 112 90 104 96Z" fill="url(#f)"/><path d="M120 112C106 124 100 142 102 160" fill="none" stroke="#FFFFFF" stroke-opacity="0.55" stroke-width="6" stroke-linecap="round"/><path d="M150 110Q158 114 164 122" fill="none" stroke="#FFFFFF" stroke-opacity="0.45" stroke-width="3" stroke-linecap="round"/></svg>