<svg xmlns="http://www.w3.org/2000/svg" width="256" height="256" viewBox="0 0 256 256" role="img" aria-labelledby="title"><title id="title">柿子</title><defs><linearGradient id="bg" x1="0" y1="0" x2="0.8" y2="1"><stop stop-color="#FFFFFF"/><stop offset="1" stop-color="#F9EACF"/></linearGradient><linearGradient id="rim" x1="0" y1="0" x2="0.7" y2="1"><stop stop-color="#F9EACF"/><stop offset="1" stop-color="#D78A40" stop-opacity="0.38"/></linearGradient><linearGradient id="leaf" x1="0" y1="0" x2="0.8" y2="1"><stop stop-color="#8DBB51"/><stop offset="1" stop-color="#317450"/></linearGradient><linearGradient id="f" x1="0.2" y1="0" x2="0.8" y2="1"><stop stop-color="#F39A64"/><stop offset="1" stop-color="#E2623A"/></linearGradient></defs><circle cx="128" cy="128" r="119" fill="url(#rim)"/><circle cx="128" cy="127" r="113" fill="url(#bg)"/><path d="M39 100A94 94 0 0 1 160 38" fill="none" stroke="#FFF" stroke-width="3" stroke-linecap="round" opacity="0.85"/><ellipse cx="128" cy="210" rx="62" ry="6" fill="#6F6250" opacity="0.13"/><path d="M60 152C58 124 90 108 128 110C166 108 198 124 196 156C194 188 168 208 128 208C90 208 62 190 60 152Z" fill="url(#f)"/><path d="M76 138Q72 152 80 168" fill="none" stroke="#FFFFFF" stroke-opacity="0.45" stroke-width="6" stroke-linecap="round"/><path d="M128 110L128 100" stroke="#6E5A33" stroke-width="5" stroke-linecap="round"/><path d="M116.0 109.9L95.1 100.0L121.8 104.9Z" fill="#4F7A3C" stroke="#3D6430" stroke-width="1" stroke-linejoin="round"/><path d="M120.5 105.3L121.4 90.3L131.8 104.3Z" fill="#4F7A3C" stroke="#3D6430" stroke-width="1" stroke-linejoin="round"/><path d="M131.4 104.2L154.9 95.9L139.5 108.3Z" fill="#4F7A3C" stroke="#3D6430" stroke-width="1" stroke-linejoin="round"/><path d="M137.4 106.3L165.4 106.5L139.4 111.9Z" fill="#4F7A3C" stroke="#3D6430" stroke-width="1" stroke-linejoin="round"/><path d="M140.0 110.1L160.9 120.0L134.2 115.1Z" fill="#4F7A3C" stroke="#3D6430" stroke-width="1" stroke-linejoin="round"/><path d="M137.0 114.0L141.0 128.8L126.2 115.9Z" fill="#4F7A3C" stroke="#3D6430" stroke-width="1" stroke-linejoin="round"/><path d="M129.8 115.9L115.0 128.8L119.0 114.0Z" fill="#4F7A3C" stroke="#3D6430" stroke-width="1" stroke-linejoin="round"/><path d="M120.1 114.5L92.3 116.8L116.1 109.1Z" fill="#4F7A3C" stroke="#3D6430" stroke-width="1" stroke-linejoin="round"/><circle cx="128" cy="110" r="9" fill="#5E8A44" stroke="#3D6430" stroke-width="1.4"/></svg>